#!OML:ASF E:\emotionWalksFemale\Project 1\Capture day 1\Session 1\Female1.ASF
:FULLY-SPECIFIED
:DEGREES
841
root 8.7502 15.0882 10.7541 181.228 9.21659 -176.005
lowerback 6.08018 0.377547 6.43117
upperback -3.32872 1.31334 1.64899
thorax -6.82551 0.44385 -2.03742
lowerneck -7.0259 2.9142 -1.58996
upperneck 8.19122 4.02596 1.25138
head 3.86182 2.02301 0.919055
rclavicle -6.53505e-015 -1.35174e-014
rhumerus -39.7677 14.0057 -90.9341
rradius 36.9341
rwrist 5.67309
rhand 1.16361 -58.1321
rfingers 7.12502
rthumb 26.7044 -446.268
lclavicle -6.53505e-015 -1.35174e-014
lhumerus -47.7987 19.3457 68.0652
lradius 34.9872
lwrist -14.0139
lhand -0.408125 -31.3956
lfingers 7.12502
lthumb 25.1994 -3.0393
rfemur 26.9521 11.8608 35.0067
rtibia 7.95139e-014
rfoot -5.96479 -16.8365
rtoes -4.88493
lfemur -33.6398 -26.6043 -5.84752
ltibia 23.4405
lfoot -26.3036 32.5841
ltoes 12.8537
842
root 8.73467 15.0919 10.6189 181.249 9.34303 -176.115
lowerback 6.11551 0.43004 6.2224
upperback -3.51397 1.38373 1.66243
thorax -7.04188 0.480952 -1.91652
lowerneck -7.08129 2.91481 -1.57447
upperneck 8.31725 4.0335 1.20445
head 3.91871 2.02565 0.904966
rclavicle -5.81445e-015 -6.75868e-015
rhumerus -39.9842 14.0729 -90.916
rradius 37.5088
rwrist 5.02101
rhand 1.12071 -58.0004
rfingers 7.12502
rthumb 26.6634 -446.142
lclavicle -5.81445e-015 -6.75868e-015
lhumerus -48.0868 19.5008 67.6962
lradius 34.5481
lwrist -14.303
lhand -0.485911 -31.7908
lfingers 7.12502
lthumb 25.1249 -3.42396
rfemur 27.3676 11.7869 34.7332
rtibia 1.08139e-013
rfoot -5.07614 -16.4158
rtoes -4.88184
lfemur -33.0678 -26.6561 -6.34005
ltibia 23.4167
lfoot -24.9934 34.0291
ltoes 8.79011
843
root 8.71841 15.103 10.4814 181.29 9.50537 -176.257
lowerback 5.9804 0.473219 6.07005
upperback -3.6295 1.42291 1.62999
thorax -7.0856 0.504403 -1.86854
lowerneck -7.08037 2.91776 -1.4355
upperneck 8.33377 4.04365 0.987655
head 3.93169 2.02527 0.809469
rclavicle -1.37907e-014 1.55052e-014
rhumerus -40.1512 14.1922 -90.9557
rradius 38.2808
rwrist 4.43319
rhand 1.1673 -58.0274
rfingers 7.12502
rthumb 26.708 -446.163
lclavicle -1.37907e-014 1.55052e-014
lhumerus -48.4095 19.688 67.2201
lradius 34.2569
lwrist -14.7973
lhand -1.00406 -32.4711
lfingers 7.12502
lthumb 24.6283 -4.03567
rfemur 27.7324 11.7624 34.3993
rtibia -7.31528e-014
rfoot -4.07535 -16.0019
rtoes -6.53827
lfemur -32.5904 -26.6461 -6.87778
ltibia 23.4736
lfoot -25.2061 34.9069
ltoes 9.12218
844
root 8.70012 15.1203 10.3413 181.289 9.61683 -176.334
lowerback 5.76436 0.47364 6.04552
upperback -3.66763 1.40568 1.60257
thorax -7.0022 0.498909 -1.87826
lowerneck -7.10734 2.96373 -1.27912
upperneck 8.3031 4.10868 0.763343
head 3.93347 2.05167 0.711249
rclavicle -9.14409e-015 -6.79844e-014
rhumerus -40.1528 14.3347 -90.9897
rradius 38.9159
rwrist 3.91993
rhand 0.753645 -58.1788
rfingers 7.12502
rthumb 26.312 -446.374
lclavicle -9.14409e-015 -6.79844e-014
lhumerus -48.7532 19.9788 66.7421
lradius 34.1043
lwrist -15.21
lhand -1.02091 -32.0647
lfingers 7.12502
lthumb 24.6122 -3.62704
rfemur 28.1127 11.6909 34.0977
rtibia 2.54444e-014
rfoot -3.00764 -15.5027
rtoes -7.25075
lfemur -32.1032 -26.6768 -7.35229
ltibia 23.5276
lfoot -27.268 34.6227
ltoes 17.3229
845
root 8.68083 15.1436 10.1988 181.339 9.5926 -176.446
lowerback 5.49375 0.468943 6.03752
upperback -3.68305 1.37356 1.54048
thorax -6.86286 0.485594 -1.93089
lowerneck -7.28304 2.99757 -1.36494
upperneck 8.28334 4.15023 0.883842
head 3.95632 2.0734 0.772214
rclavicle -2.58172e-014 -7.15625e-015
rhumerus -39.9419 14.1164 -90.8587
rradius 39.3295
rwrist 3.84513
rhand 0.572742 -58.3339
rfingers 7.12502
rthumb 26.1388 -446.555
lclavicle -2.58172e-014 -7.15625e-015
lhumerus -48.8765 20.2184 66.3765
lradius 33.8681
lwrist -15.5488
lhand -0.914644 -31.7086
lfingers 7.12502
lthumb 24.714 -3.28485
rfemur 28.4182 11.5086 33.7269
rtibia -6.04305e-014
rfoot -1.86865 -14.9963
rtoes -6.1887
lfemur -31.6642 -26.5599 -7.91617
ltibia 23.5715
lfoot -28.2836 34.2047
ltoes 23.0544
846
root 8.65984 15.1697 10.0523 181.358 9.61881 -176.82
lowerback 5.29306 0.508436 5.78657
upperback -3.75756 1.38077 1.406
thorax -6.82524 0.495683 -1.92948
lowerneck -7.45084 3.00645 -1.57879
upperneck 8.30562 4.15881 1.16787
head 3.98674 2.08292 0.909033
rclavicle -5.31749e-015 -7.55382e-015
rhumerus -39.8126 13.9125 -90.7653
rradius 39.7029
rwrist 3.56484
rhand 0.710636 -58.7648
rfingers 7.12502
rthumb 26.2709 -446.966
lclavicle -5.31749e-015 -7.55382e-015
lhumerus -49.0304 20.4288 65.9669
lradius 33.5745
lwrist -15.9244
lhand -0.697471 -31.961
lfingers 7.12502
lthumb 24.9222 -3.56593
rfemur 28.7704 11.3789 33.0819
rtibia -1.27222e-014
rfoot -0.948283 -14.6271
rtoes -6.43694
lfemur -31.1195 -26.0945 -8.9438
ltibia 23.6025
lfoot -27.0975 34.3496
ltoes 22.7141
